STARTFONT 2.1
COMMENT
COMMENT Converted from OpenType font "F25_Bank_Printer_Bold.otf" by "otf2bdf 3.0".
COMMENT
FONT -FreeType-F25 Bank Printer-Bold-R-Normal--17-120-100-100-P-91-ISO10646-1
SIZE 12 100 100
FONTBOUNDINGBOX 11 20 0 -4
STARTPROPERTIES 19
FOUNDRY "FreeType"
FAMILY_NAME "F25 Bank Printer"
WEIGHT_NAME "Bold"
SLANT "R"
SETWIDTH_NAME "Normal"
ADD_STYLE_NAME ""
PIXEL_SIZE 17
POINT_SIZE 120
RESOLUTION_X 100
RESOLUTION_Y 100
SPACING "P"
AVERAGE_WIDTH 91
CHARSET_REGISTRY "ISO10646"
CHARSET_ENCODING "1"
FONT_ASCENT 12
FONT_DESCENT 4
COPYRIGHT "Copyright (c) 2005 by Volker Busse, Berlin. All rights reserved."
_OTF_FONTFILE "F25_Bank_Printer_Bold.otf"
_OTF_PSNAME "F25BankPrinter-Bold"
ENDPROPERTIES
CHARS 162
STARTCHAR 0020
ENCODING 32
SWIDTH 660 0
DWIDTH 11 0
BBX 0 0 0 0
BITMAP
ENDCHAR
STARTCHAR 0021
ENCODING 33
SWIDTH 660 0
DWIDTH 11 0
BBX 4 12 3 0
BITMAP
F0
F0
F0
70
70
70
70
70
00
00
F0
F0
ENDCHAR
STARTCHAR 0022
ENCODING 34
SWIDTH 660 0
DWIDTH 11 0
BBX 7 6 2 6
BITMAP
EE
EE
EE
EC
EC
EC
ENDCHAR
STARTCHAR 0023
ENCODING 35
SWIDTH 660 0
DWIDTH 11 0
BBX 10 12 0 0
BITMAP
06C0
0FC0
0D80
3FC0
3FC0
1B00
3F00
7F80
7F80
7E00
6C00
EC00
ENDCHAR
STARTCHAR 0024
ENCODING 36
SWIDTH 660 0
DWIDTH 11 0
BBX 10 12 0 0
BITMAP
0C00
3F80
FFC0
EDC0
FC00
7F00
0F80
0DC0
EDC0
FFC0
7F00
0C00
ENDCHAR
STARTCHAR 0026
ENCODING 38
SWIDTH 660 0
DWIDTH 11 0
BBX 10 12 0 0
BITMAP
3E00
7F80
7380
7780
7F00
3E00
7DC0
FFC0
EFC0
F7C0
7F80
7FC0
ENDCHAR
STARTCHAR 0027
ENCODING 39
SWIDTH 660 0
DWIDTH 11 0
BBX 3 6 4 6
BITMAP
E0
E0
E0
E0
E0
E0
ENDCHAR
STARTCHAR 0028
ENCODING 40
SWIDTH 660 0
DWIDTH 11 0
BBX 6 12 2 0
BITMAP
1C
3C
70
70
60
E0
E0
60
70
70
3C
1C
ENDCHAR
STARTCHAR 0029
ENCODING 41
SWIDTH 660 0
DWIDTH 11 0
BBX 6 12 2 0
BITMAP
E0
70
38
1C
1C
1C
1C
1C
1C
38
70
E0
ENDCHAR
STARTCHAR 002A
ENCODING 42
SWIDTH 660 0
DWIDTH 11 0
BBX 10 9 0 1
BITMAP
F3C0
7B80
3F00
FFC0
FFC0
3F00
3F80
73C0
F1C0
ENDCHAR
STARTCHAR 002B
ENCODING 43
SWIDTH 660 0
DWIDTH 11 0
BBX 9 9 1 1
BITMAP
1800
1800
1800
FF80
FF80
1800
1800
1800
1800
ENDCHAR
STARTCHAR 002C
ENCODING 44
SWIDTH 660 0
DWIDTH 11 0
BBX 5 6 2 -3
BITMAP
38
78
70
70
E0
E0
ENDCHAR
STARTCHAR 002D
ENCODING 45
SWIDTH 660 0
DWIDTH 11 0
BBX 8 2 1 5
BITMAP
FF
FF
ENDCHAR
STARTCHAR 002E
ENCODING 46
SWIDTH 660 0
DWIDTH 11 0
BBX 3 3 4 0
BITMAP
E0
E0
E0
ENDCHAR
STARTCHAR 002F
ENCODING 47
SWIDTH 660 0
DWIDTH 11 0
BBX 7 12 2 0
BITMAP
0E
0C
1C
18
38
38
30
70
60
E0
E0
C0
ENDCHAR
STARTCHAR 0030
ENCODING 48
SWIDTH 660 0
DWIDTH 11 0
BBX 9 12 1 0
BITMAP
3E00
7F00
7700
6700
E780
E780
E780
E780
7700
7700
7F00
3E00
ENDCHAR
STARTCHAR 0031
ENCODING 49
SWIDTH 660 0
DWIDTH 11 0
BBX 7 11 2 0
BITMAP
F8
F8
38
38
38
38
38
38
38
FE
FE
ENDCHAR
STARTCHAR 0032
ENCODING 50
SWIDTH 660 0
DWIDTH 11 0
BBX 9 11 1 0
BITMAP
7F00
FF00
E380
0780
0F00
1E00
7C00
7000
E000
FF80
FF80
ENDCHAR
STARTCHAR 0033
ENCODING 51
SWIDTH 660 0
DWIDTH 11 0
BBX 9 12 1 0
BITMAP
FF80
FF80
0F00
1E00
3C00
3F00
0780
0380
0380
E380
FF00
7E00
ENDCHAR
STARTCHAR 0034
ENCODING 52
SWIDTH 660 0
DWIDTH 11 0
BBX 9 11 1 0
BITMAP
1E00
1C00
3800
7800
F000
EE00
EE00
FF80
FF80
0E00
0E00
ENDCHAR
STARTCHAR 0035
ENCODING 53
SWIDTH 660 0
DWIDTH 11 0
BBX 9 12 1 0
BITMAP
7F00
7F00
7000
7000
7E00
7F00
0700
0780
0780
0700
FF00
FC00
ENDCHAR
STARTCHAR 0036
ENCODING 54
SWIDTH 660 0
DWIDTH 11 0
BBX 9 11 1 0
BITMAP
0F00
1E00
3C00
7800
7F00
FF80
E380
E380
E380
FF80
7F00
ENDCHAR
STARTCHAR 0037
ENCODING 55
SWIDTH 660 0
DWIDTH 11 0
BBX 9 11 1 0
BITMAP
FF80
FF80
0780
0F00
1E00
1C00
3800
3800
3800
3800
3800
ENDCHAR
STARTCHAR 0038
ENCODING 56
SWIDTH 660 0
DWIDTH 11 0
BBX 9 12 1 0
BITMAP
3E00
7F00
E380
F780
7F00
3E00
7F00
E380
E380
E380
FF80
7F00
ENDCHAR
STARTCHAR 0039
ENCODING 57
SWIDTH 660 0
DWIDTH 11 0
BBX 9 12 1 0
BITMAP
3E00
7F00
E780
E380
E380
E380
7F80
3F00
0E00
1E00
3C00
7800
ENDCHAR
STARTCHAR 003A
ENCODING 58
SWIDTH 660 0
DWIDTH 11 0
BBX 3 9 4 0
BITMAP
E0
E0
E0
00
00
00
E0
E0
E0
ENDCHAR
STARTCHAR 003B
ENCODING 59
SWIDTH 660 0
DWIDTH 11 0
BBX 5 12 1 -3
BITMAP
38
38
38
00
00
38
38
78
70
E0
E0
C0
ENDCHAR
STARTCHAR 003C
ENCODING 60
SWIDTH 660 0
DWIDTH 11 0
BBX 8 10 1 0
BITMAP
01
07
1F
7C
F0
F0
7C
1F
07
03
ENDCHAR
STARTCHAR 003D
ENCODING 61
SWIDTH 660 0
DWIDTH 11 0
BBX 9 6 1 3
BITMAP
FF80
FF80
0000
0000
FF80
FF80
ENDCHAR
STARTCHAR 003E
ENCODING 62
SWIDTH 660 0
DWIDTH 11 0
BBX 9 10 1 0
BITMAP
C000
F000
7C00
1E00
0780
0780
1E00
7C00
F000
C000
ENDCHAR
STARTCHAR 003F
ENCODING 63
SWIDTH 660 0
DWIDTH 11 0
BBX 8 12 1 0
BITMAP
1C
7E
FF
E7
E7
0F
1E
1C
00
00
1C
1C
ENDCHAR
STARTCHAR 0040
ENCODING 64
SWIDTH 660 0
DWIDTH 11 0
BBX 10 13 0 0
BITMAP
3F00
7F80
63C0
E1C0
00C0
3EC0
7EC0
7EC0
E6C0
E6C0
F7C0
7FC0
3F80
ENDCHAR
STARTCHAR 0041
ENCODING 65
SWIDTH 660 0
DWIDTH 11 0
BBX 10 12 0 0
BITMAP
1E00
1E00
1F00
1F00
3F00
3B80
3B80
7F80
7F80
71C0
F1C0
E1C0
ENDCHAR
STARTCHAR 0042
ENCODING 66
SWIDTH 660 0
DWIDTH 11 0
BBX 10 12 0 0
BITMAP
FF00
FF80
73C0
71C0
71C0
7F80
7F80
71C0
71C0
71C0
FFC0
FF00
ENDCHAR
STARTCHAR 0043
ENCODING 67
SWIDTH 660 0
DWIDTH 11 0
BBX 9 12 1 0
BITMAP
3E00
7F00
F780
E000
E000
E000
E000
E000
E000
E380
7F00
3E00
ENDCHAR
STARTCHAR 0044
ENCODING 68
SWIDTH 660 0
DWIDTH 11 0
BBX 10 12 0 0
BITMAP
FF00
FF80
73C0
71C0
71C0
71C0
71C0
71C0
71C0
73C0
FF80
FF00
ENDCHAR
STARTCHAR 0045
ENCODING 69
SWIDTH 660 0
DWIDTH 11 0
BBX 9 12 1 0
BITMAP
FF80
FF80
E000
E000
E000
FF00
FF00
E000
E000
E000
FF80
FF80
ENDCHAR
STARTCHAR 0046
ENCODING 70
SWIDTH 660 0
DWIDTH 11 0
BBX 8 12 1 0
BITMAP
FF
FF
E0
E0
E0
FE
FE
E0
E0
E0
E0
E0
ENDCHAR
STARTCHAR 0047
ENCODING 71
SWIDTH 660 0
DWIDTH 11 0
BBX 9 12 1 0
BITMAP
3E00
7F00
F780
E000
E000
FF80
FF80
E380
E380
F780
7F00
3E00
ENDCHAR
STARTCHAR 0048
ENCODING 72
SWIDTH 660 0
DWIDTH 11 0
BBX 9 12 1 0
BITMAP
E380
E380
E380
E380
E380
FF80
FF80
E380
E380
E380
E380
E380
ENDCHAR
STARTCHAR 0049
ENCODING 73
SWIDTH 660 0
DWIDTH 11 0
BBX 7 12 2 0
BITMAP
FE
FE
38
38
38
38
38
38
38
38
FE
FE
ENDCHAR
STARTCHAR 004A
ENCODING 74
SWIDTH 660 0
DWIDTH 11 0
BBX 7 12 2 0
BITMAP
0E
0E
0E
0E
0E
0E
0E
0E
EE
EE
FE
FC
ENDCHAR
STARTCHAR 004B
ENCODING 75
SWIDTH 660 0
DWIDTH 11 0
BBX 11 12 0 0
BITMAP
E3C0
E780
EF00
FE00
FC00
F800
F800
FC00
EE00
E780
E3C0
E1E0
ENDCHAR
STARTCHAR 004C
ENCODING 76
SWIDTH 660 0
DWIDTH 11 0
BBX 9 12 1 0
BITMAP
E000
E000
E000
E000
E000
E000
E000
E000
E000
E000
FF80
FF80
ENDCHAR
STARTCHAR 004D
ENCODING 77
SWIDTH 660 0
DWIDTH 11 0
BBX 10 12 0 0
BITMAP
FBC0
FBC0
FFC0
FFC0
FFC0
FFC0
FFC0
EFC0
E1C0
E1C0
E1C0
E1C0
ENDCHAR
STARTCHAR 004E
ENCODING 78
SWIDTH 660 0
DWIDTH 11 0
BBX 9 12 1 0
BITMAP
E380
F380
F380
FB80
FB80
DF80
DF80
CF80
CF80
C780
C780
C380
ENDCHAR
STARTCHAR 004F
ENCODING 79
SWIDTH 660 0
DWIDTH 11 0
BBX 10 12 0 0
BITMAP
3F00
7F80
73C0
E1C0
E1C0
E1C0
E1C0
E1C0
E1C0
73C0
7F80
3F00
ENDCHAR
STARTCHAR 0050
ENCODING 80
SWIDTH 660 0
DWIDTH 11 0
BBX 10 12 0 0
BITMAP
FF00
FFC0
E1C0
E1C0
E1C0
FF80
FF00
E000
E000
E000
E000
E000
ENDCHAR
STARTCHAR 0051
ENCODING 81
SWIDTH 660 0
DWIDTH 11 0
BBX 10 13 0 -1
BITMAP
3F00
7F80
73C0
E1C0
E1C0
E1C0
E1C0
E1C0
EFC0
7FC0
7F80
3FC0
0DC0
ENDCHAR
STARTCHAR 0052
ENCODING 82
SWIDTH 660 0
DWIDTH 11 0
BBX 10 12 0 0
BITMAP
FF00
FF80
E380
E380
E380
FF80
FF00
EE00
E700
E780
E3C0
E1C0
ENDCHAR
STARTCHAR 0053
ENCODING 83
SWIDTH 660 0
DWIDTH 11 0
BBX 9 12 1 0
BITMAP
3E00
7F00
FF80
E380
E000
7C00
3F00
0F80
C380
E380
FF00
7E00
ENDCHAR
STARTCHAR 0054
ENCODING 84
SWIDTH 660 0
DWIDTH 11 0
BBX 10 12 0 0
BITMAP
FFC0
FFC0
0E00
0E00
0E00
0E00
0E00
0E00
0E00
0E00
0E00
0E00
ENDCHAR
STARTCHAR 0055
ENCODING 85
SWIDTH 660 0
DWIDTH 11 0
BBX 10 12 0 0
BITMAP
E1C0
E1C0
E1C0
E1C0
E1C0
E1C0
E1C0
E1C0
E1C0
71C0
7FC0
3F80
ENDCHAR
STARTCHAR 0056
ENCODING 86
SWIDTH 660 0
DWIDTH 11 0
BBX 11 12 0 0
BITMAP
E0E0
E1C0
71C0
71C0
7380
7B80
3B80
3F00
3F00
1F00
1E00
1E00
ENDCHAR
STARTCHAR 0057
ENCODING 87
SWIDTH 660 0
DWIDTH 11 0
BBX 10 12 0 0
BITMAP
E1C0
E1C0
E1C0
E1C0
EDC0
EFC0
7FC0
7FC0
7FC0
7F80
7F80
7B80
ENDCHAR
STARTCHAR 0058
ENCODING 88
SWIDTH 660 0
DWIDTH 11 0
BBX 10 12 0 0
BITMAP
F1C0
73C0
7B80
3F80
1F00
1E00
1E00
1F00
3F80
7B80
73C0
F1C0
ENDCHAR
STARTCHAR 0059
ENCODING 89
SWIDTH 660 0
DWIDTH 11 0
BBX 10 12 0 0
BITMAP
E1C0
73C0
7B80
3F80
1F00
1E00
0E00
0E00
0E00
0E00
0E00
0E00
ENDCHAR
STARTCHAR 005A
ENCODING 90
SWIDTH 660 0
DWIDTH 11 0
BBX 9 12 1 0
BITMAP
FF00
FF00
0E00
0E00
1C00
1C00
3800
3800
7000
F000
FF80
FF80
ENDCHAR
STARTCHAR 005B
ENCODING 91
SWIDTH 660 0
DWIDTH 11 0
BBX 8 13 1 0
BITMAP
FF
FF
E0
E0
E0
E0
E0
E0
E0
E0
E0
FF
FF
ENDCHAR
STARTCHAR 005C
ENCODING 92
SWIDTH 660 0
DWIDTH 11 0
BBX 8 12 1 0
BITMAP
E0
70
70
38
38
1C
1C
1C
0E
0E
07
07
ENDCHAR
STARTCHAR 005D
ENCODING 93
SWIDTH 660 0
DWIDTH 11 0
BBX 8 13 1 0
BITMAP
FF
FF
07
07
07
07
07
07
07
07
07
FF
FF
ENDCHAR
STARTCHAR 005E
ENCODING 94
SWIDTH 660 0
DWIDTH 11 0
BBX 7 3 2 9
BITMAP
38
7C
EE
ENDCHAR
STARTCHAR 005F
ENCODING 95
SWIDTH 660 0
DWIDTH 11 0
BBX 10 2 0 -2
BITMAP
FFC0
FFC0
ENDCHAR
STARTCHAR 0060
ENCODING 96
SWIDTH 660 0
DWIDTH 11 0
BBX 5 3 3 9
BITMAP
E0
70
38
ENDCHAR
STARTCHAR 0061
ENCODING 97
SWIDTH 660 0
DWIDTH 11 0
BBX 9 9 1 0
BITMAP
3E00
7F00
E780
0380
7F80
FF80
E780
FF80
7F80
ENDCHAR
STARTCHAR 0062
ENCODING 98
SWIDTH 660 0
DWIDTH 11 0
BBX 10 12 0 0
BITMAP
E000
E000
E000
FF00
FF80
F3C0
F1C0
E1C0
E1C0
F3C0
FF80
FF00
ENDCHAR
STARTCHAR 0063
ENCODING 99
SWIDTH 660 0
DWIDTH 11 0
BBX 8 9 1 0
BITMAP
3E
7F
F7
E0
E0
E0
E7
7F
3E
ENDCHAR
STARTCHAR 0064
ENCODING 100
SWIDTH 660 0
DWIDTH 11 0
BBX 10 12 0 0
BITMAP
01C0
01C0
01C0
1FC0
7FC0
73C0
E1C0
E1C0
E1C0
73C0
7FC0
3FC0
ENDCHAR
STARTCHAR 0065
ENCODING 101
SWIDTH 660 0
DWIDTH 11 0
BBX 9 9 1 0
BITMAP
3E00
7F00
E780
FF80
FF80
E000
E000
FF00
3F00
ENDCHAR
STARTCHAR 0066
ENCODING 102
SWIDTH 660 0
DWIDTH 11 0
BBX 8 13 1 0
BITMAP
0F
1F
1C
1C
FF
FF
1C
1C
1C
1C
1C
1C
1C
ENDCHAR
STARTCHAR 0067
ENCODING 103
SWIDTH 660 0
DWIDTH 11 0
BBX 9 12 1 -3
BITMAP
7F80
FF80
E780
E380
E380
E380
F780
7F80
3F80
0380
FF80
7E00
ENDCHAR
STARTCHAR 0068
ENCODING 104
SWIDTH 660 0
DWIDTH 11 0
BBX 8 12 1 0
BITMAP
E0
E0
E0
FE
FF
F7
E3
E3
E3
E3
E3
E3
ENDCHAR
STARTCHAR 0069
ENCODING 105
SWIDTH 660 0
DWIDTH 11 0
BBX 7 13 2 0
BITMAP
38
78
78
00
F8
F8
38
38
38
38
38
FE
FE
ENDCHAR
STARTCHAR 006A
ENCODING 106
SWIDTH 660 0
DWIDTH 11 0
BBX 6 16 2 -3
BITMAP
1C
1C
1C
00
7C
7C
1C
1C
1C
1C
1C
1C
1C
1C
FC
F8
ENDCHAR
STARTCHAR 006B
ENCODING 107
SWIDTH 660 0
DWIDTH 11 0
BBX 9 12 1 0
BITMAP
E000
E000
E000
E000
EF00
FE00
F800
F000
FC00
FE00
EF00
E780
ENDCHAR
STARTCHAR 006C
ENCODING 108
SWIDTH 660 0
DWIDTH 11 0
BBX 7 12 2 0
BITMAP
F8
F8
38
38
38
38
38
38
38
38
FE
FE
ENDCHAR
STARTCHAR 006D
ENCODING 109
SWIDTH 660 0
DWIDTH 11 0
BBX 10 9 0 0
BITMAP
FF80
FFC0
EFC0
EFC0
EFC0
EFC0
EFC0
EFC0
EFC0
ENDCHAR
STARTCHAR 006E
ENCODING 110
SWIDTH 660 0
DWIDTH 11 0
BBX 9 9 1 0
BITMAP
FE00
FF00
E380
E380
E380
E380
E380
E380
E380
ENDCHAR
STARTCHAR 006F
ENCODING 111
SWIDTH 660 0
DWIDTH 11 0
BBX 10 9 0 0
BITMAP
1F00
7F80
71C0
E1C0
E1C0
E1C0
71C0
7F80
3F00
ENDCHAR
STARTCHAR 0070
ENCODING 112
SWIDTH 660 0
DWIDTH 11 0
BBX 10 12 0 -3
BITMAP
FF00
FF80
F1C0
F1C0
E1C0
F1C0
F1C0
FF80
FF00
E000
E000
E000
ENDCHAR
STARTCHAR 0071
ENCODING 113
SWIDTH 660 0
DWIDTH 11 0
BBX 10 12 0 -3
BITMAP
3FC0
7FC0
73C0
E1C0
E1C0
E1C0
73C0
7FC0
3FC0
01C0
01C0
01C0
ENDCHAR
STARTCHAR 0072
ENCODING 114
SWIDTH 660 0
DWIDTH 11 0
BBX 8 9 2 0
BITMAP
FE
FF
E7
E0
E0
E0
E0
E0
E0
ENDCHAR
STARTCHAR 0073
ENCODING 115
SWIDTH 660 0
DWIDTH 11 0
BBX 9 9 1 0
BITMAP
3E00
FF00
E700
F800
7F00
0F00
E380
FF00
7F00
ENDCHAR
STARTCHAR 0074
ENCODING 116
SWIDTH 660 0
DWIDTH 11 0
BBX 8 11 1 0
BITMAP
18
18
FF
FF
1C
1C
1C
1C
1C
1F
0F
ENDCHAR
STARTCHAR 0075
ENCODING 117
SWIDTH 660 0
DWIDTH 11 0
BBX 9 9 1 0
BITMAP
E380
E380
E380
E380
E380
E380
E780
FF80
7F80
ENDCHAR
STARTCHAR 0076
ENCODING 118
SWIDTH 660 0
DWIDTH 11 0
BBX 10 9 0 0
BITMAP
E1C0
71C0
7380
7380
3B80
3F00
3F00
1F00
1E00
ENDCHAR
STARTCHAR 0077
ENCODING 119
SWIDTH 660 0
DWIDTH 11 0
BBX 10 9 0 0
BITMAP
E1C0
E1C0
E1C0
7FC0
7FC0
7F80
7F80
7F80
7B80
ENDCHAR
STARTCHAR 0078
ENCODING 120
SWIDTH 660 0
DWIDTH 11 0
BBX 10 9 0 0
BITMAP
F3C0
7B80
3F00
1E00
1E00
1F00
3F80
7380
F1C0
ENDCHAR
STARTCHAR 0079
ENCODING 121
SWIDTH 660 0
DWIDTH 11 0
BBX 10 12 0 -3
BITMAP
E1C0
F1C0
7B80
3B80
3F00
1F00
0E00
1E00
1C00
3800
7800
7000
ENDCHAR
STARTCHAR 007A
ENCODING 122
SWIDTH 660 0
DWIDTH 11 0
BBX 8 9 1 0
BITMAP
FF
FF
0F
1E
3C
78
F0
FF
FF
ENDCHAR
STARTCHAR 00BF
ENCODING 191
SWIDTH 660 0
DWIDTH 11 0
BBX 8 11 1 0
BITMAP
1C
1C
00
1C
1C
1E
0F
E7
E7
7F
3E
ENDCHAR
STARTCHAR 00C0
ENCODING 192
SWIDTH 660 0
DWIDTH 11 0
BBX 10 16 0 0
BITMAP
3800
3C00
1E00
0000
1E00
1E00
1F00
1F00
3F00
3B80
3B80
7F80
7F80
71C0
F1C0
E1C0
ENDCHAR
STARTCHAR 00C1
ENCODING 193
SWIDTH 660 0
DWIDTH 11 0
BBX 10 16 0 0
BITMAP
0780
0700
0E00
0000
1E00
1E00
1F00
1F00
3F00
3B80
3B80
7F80
7F80
71C0
F1C0
E1C0
ENDCHAR
STARTCHAR 00C2
ENCODING 194
SWIDTH 660 0
DWIDTH 11 0
BBX 10 15 0 0
BITMAP
1F00
3F00
3B80
1E00
1E00
1F00
1F00
3F00
3B80
3B80
7F80
7F80
71C0
F1C0
E1C0
ENDCHAR
STARTCHAR 00C3
ENCODING 195
SWIDTH 660 0
DWIDTH 11 0
BBX 10 15 0 0
BITMAP
3F80
3F80
0000
1E00
1E00
1F00
1F00
3F00
3B80
3B80
7F80
7F80
71C0
F1C0
E1C0
ENDCHAR
STARTCHAR 00C4
ENCODING 196
SWIDTH 660 0
DWIDTH 11 0
BBX 10 14 0 0
BITMAP
3B80
3B80
3B80
1E00
1F00
1F00
3F00
3B80
3B80
7F80
7F80
71C0
71C0
E1C0
ENDCHAR
STARTCHAR 00C5
ENCODING 197
SWIDTH 660 0
DWIDTH 11 0
BBX 10 12 0 0
BITMAP
1E00
1E00
1F00
1F00
3F00
3B80
3B80
7F80
7F80
71C0
F1C0
E1C0
ENDCHAR
STARTCHAR 00C6
ENCODING 198
SWIDTH 660 0
DWIDTH 11 0
BBX 9 12 1 0
BITMAP
3F80
3F80
3C00
7C00
7E00
7F80
6F80
7E00
FE00
EE00
EF80
EF80
ENDCHAR
STARTCHAR 00C7
ENCODING 199
SWIDTH 660 0
DWIDTH 11 0
BBX 9 15 1 -3
BITMAP
3E00
7F00
F780
E000
E000
E000
E000
E000
E000
E380
7F00
3E00
3C00
3800
7800
ENDCHAR
STARTCHAR 00C8
ENCODING 200
SWIDTH 660 0
DWIDTH 11 0
BBX 9 16 1 0
BITMAP
7800
3C00
1C00
0000
FF80
FF80
E000
E000
E000
FF00
FF00
E000
E000
E000
FF80
FF80
ENDCHAR
STARTCHAR 00C9
ENCODING 201
SWIDTH 660 0
DWIDTH 11 0
BBX 9 16 1 0
BITMAP
0F00
0E00
1C00
0000
FF80
FF80
E000
E000
E000
FF00
FF00
E000
E000
E000
FF80
FF80
ENDCHAR
STARTCHAR 00CA
ENCODING 202
SWIDTH 660 0
DWIDTH 11 0
BBX 9 16 1 0
BITMAP
3E00
3E00
7700
0000
FF80
FF80
E000
E000
E000
FF00
FF00
E000
E000
E000
FF80
FF80
ENDCHAR
STARTCHAR 00CB
ENCODING 203
SWIDTH 660 0
DWIDTH 11 0
BBX 9 15 1 0
BITMAP
7700
7700
7700
FF80
FF80
E000
E000
E000
FF00
FF00
E000
E000
E000
FF80
FF80
ENDCHAR
STARTCHAR 00CC
ENCODING 204
SWIDTH 660 0
DWIDTH 11 0
BBX 7 16 2 0
BITMAP
E0
70
78
00
FE
FE
38
38
38
38
38
38
38
38
FE
FE
ENDCHAR
STARTCHAR 00CD
ENCODING 205
SWIDTH 660 0
DWIDTH 11 0
BBX 7 16 2 0
BITMAP
1E
1C
38
00
FE
FE
38
38
38
38
38
38
38
38
FE
FE
ENDCHAR
STARTCHAR 00CE
ENCODING 206
SWIDTH 660 0
DWIDTH 11 0
BBX 7 16 2 0
BITMAP
7C
7C
EE
00
FE
FE
38
38
38
38
38
38
38
38
FE
FE
ENDCHAR
STARTCHAR 00CF
ENCODING 207
SWIDTH 660 0
DWIDTH 11 0
BBX 7 15 2 0
BITMAP
EE
EE
EE
FE
FE
38
38
38
38
38
38
38
38
FE
FE
ENDCHAR
STARTCHAR 00D1
ENCODING 209
SWIDTH 660 0
DWIDTH 11 0
BBX 9 15 1 0
BITMAP
3F00
7F00
0000
E380
F380
F380
FB80
FB80
DF80
DF80
CF80
CF80
C780
C780
C380
ENDCHAR
STARTCHAR 00D2
ENCODING 210
SWIDTH 660 0
DWIDTH 11 0
BBX 10 15 0 0
BITMAP
3C00
1C00
0E00
3F00
7F80
73C0
E1C0
E1C0
E1C0
E1C0
E1C0
E1C0
73C0
7F80
3F00
ENDCHAR
STARTCHAR 00D3
ENCODING 211
SWIDTH 660 0
DWIDTH 11 0
BBX 10 16 0 0
BITMAP
0780
0700
0E00
0000
3F00
7F80
73C0
E1C0
E1C0
E1C0
E1C0
E1C0
E1C0
73C0
7F80
3F00
ENDCHAR
STARTCHAR 00D4
ENCODING 212
SWIDTH 660 0
DWIDTH 11 0
BBX 10 15 0 0
BITMAP
1F00
3F80
3B80
3F00
7F80
73C0
E1C0
E1C0
E1C0
E1C0
E1C0
E1C0
73C0
7F80
3F00
ENDCHAR
STARTCHAR 00D5
ENCODING 213
SWIDTH 660 0
DWIDTH 11 0
BBX 10 15 0 0
BITMAP
3F80
3F80
0000
3F00
7F80
73C0
E1C0
E1C0
E1C0
E1C0
E1C0
E1C0
73C0
7F80
3F00
ENDCHAR
STARTCHAR 00D6
ENCODING 214
SWIDTH 660 0
DWIDTH 11 0
BBX 10 14 0 0
BITMAP
3B80
3B80
3B80
1F00
7F80
73C0
E1C0
E1C0
E1C0
E1C0
E1C0
F3C0
7F80
3F00
ENDCHAR
STARTCHAR 00D8
ENCODING 216
SWIDTH 660 0
DWIDTH 11 0
BBX 10 14 0 -1
BITMAP
0180
3F80
7F80
77C0
E7C0
E7C0
EFC0
EDC0
FDC0
F9C0
7BC0
7F80
7F00
7000
ENDCHAR
STARTCHAR 00D9
ENCODING 217
SWIDTH 660 0
DWIDTH 11 0
BBX 10 16 0 0
BITMAP
3C00
1C00
0E00
0000
E1C0
E1C0
E1C0
E1C0
E1C0
E1C0
E1C0
E1C0
E1C0
71C0
7FC0
3F80
ENDCHAR
STARTCHAR 00DA
ENCODING 218
SWIDTH 660 0
DWIDTH 11 0
BBX 10 16 0 0
BITMAP
0780
0700
0E00
0000
E1C0
E1C0
E1C0
E1C0
E1C0
E1C0
E1C0
E1C0
E1C0
71C0
7FC0
3F80
ENDCHAR
STARTCHAR 00DB
ENCODING 219
SWIDTH 660 0
DWIDTH 11 0
BBX 10 16 0 0
BITMAP
1F00
1F00
3B80
0000
E1C0
E1C0
E1C0
E1C0
E1C0
E1C0
E1C0
E1C0
E1C0
71C0
7FC0
3F80
ENDCHAR
STARTCHAR 00DC
ENCODING 220
SWIDTH 660 0
DWIDTH 11 0
BBX 10 15 0 0
BITMAP
3B80
3B80
3B80
E1C0
E1C0
E1C0
E1C0
E1C0
E1C0
E1C0
E1C0
E1C0
71C0
7FC0
3F80
ENDCHAR
STARTCHAR 00DD
ENCODING 221
SWIDTH 660 0
DWIDTH 11 0
BBX 10 16 0 0
BITMAP
0780
0700
0E00
0000
E1C0
73C0
7B80
3F80
1F00
1E00
0E00
0E00
0E00
0E00
0E00
0E00
ENDCHAR
STARTCHAR 00DF
ENCODING 223
SWIDTH 660 0
DWIDTH 11 0
BBX 10 12 0 0
BITMAP
1F00
7F80
73C0
E1C0
E380
E700
E780
E1C0
E1C0
E1C0
E780
E700
ENDCHAR
STARTCHAR 00E0
ENCODING 224
SWIDTH 660 0
DWIDTH 11 0
BBX 9 13 1 0
BITMAP
3800
1C00
1E00
0000
3E00
7F00
E780
0380
7F80
FF80
E780
FF80
7F80
ENDCHAR
STARTCHAR 00E1
ENCODING 225
SWIDTH 660 0
DWIDTH 11 0
BBX 9 13 1 0
BITMAP
0F00
0E00
1C00
0000
3E00
7F00
E780
0380
7F80
FF80
E780
FF80
7F80
ENDCHAR
STARTCHAR 00E2
ENCODING 226
SWIDTH 660 0
DWIDTH 11 0
BBX 9 13 1 0
BITMAP
3E00
3E00
7700
0000
3E00
7F00
E780
0380
7F80
FF80
E780
FF80
7F80
ENDCHAR
STARTCHAR 00E3
ENCODING 227
SWIDTH 660 0
DWIDTH 11 0
BBX 9 12 1 0
BITMAP
7F00
7F00
0000
3E00
7F00
E780
0380
7F80
FF80
E780
FF80
7F80
ENDCHAR
STARTCHAR 00E4
ENCODING 228
SWIDTH 660 0
DWIDTH 11 0
BBX 9 13 1 0
BITMAP
7E00
7E00
7E00
0000
3E00
7F00
E780
0380
7F80
FF80
E780
FF80
7F80
ENDCHAR
STARTCHAR 00E5
ENCODING 229
SWIDTH 660 0
DWIDTH 11 0
BBX 9 13 1 0
BITMAP
1C00
1C00
1C00
0000
3E00
7F00
E780
0380
7F80
FF80
E780
FF80
7F80
ENDCHAR
STARTCHAR 00E7
ENCODING 231
SWIDTH 660 0
DWIDTH 11 0
BBX 8 13 1 -4
BITMAP
3E
7F
F7
E0
E0
E0
E7
7F
3E
38
78
70
F0
ENDCHAR
STARTCHAR 00E8
ENCODING 232
SWIDTH 660 0
DWIDTH 11 0
BBX 9 13 1 0
BITMAP
3800
1C00
1E00
0000
3E00
7F00
E780
FF80
FF80
E000
E000
FF00
3F00
ENDCHAR
STARTCHAR 00E9
ENCODING 233
SWIDTH 660 0
DWIDTH 11 0
BBX 9 13 1 0
BITMAP
0F00
0E00
1C00
0000
3E00
7F00
E780
FF80
FF80
E000
E000
FF00
3F00
ENDCHAR
STARTCHAR 00EA
ENCODING 234
SWIDTH 660 0
DWIDTH 11 0
BBX 9 13 1 0
BITMAP
3E00
3E00
7700
0000
3E00
7F00
E780
FF80
FF80
E000
E000
FF00
3F00
ENDCHAR
STARTCHAR 00EB
ENCODING 235
SWIDTH 660 0
DWIDTH 11 0
BBX 9 13 1 0
BITMAP
3700
3700
3700
0000
3E00
7F00
E780
FF80
FF80
E000
E000
FF00
3F00
ENDCHAR
STARTCHAR 00EC
ENCODING 236
SWIDTH 660 0
DWIDTH 11 0
BBX 7 13 2 0
BITMAP
F0
70
38
00
F8
F8
38
38
38
38
38
FE
FE
ENDCHAR
STARTCHAR 00ED
ENCODING 237
SWIDTH 660 0
DWIDTH 11 0
BBX 7 13 2 0
BITMAP
1E
1C
38
00
F8
F8
38
38
38
38
38
FE
FE
ENDCHAR
STARTCHAR 00EE
ENCODING 238
SWIDTH 660 0
DWIDTH 11 0
BBX 7 13 2 0
BITMAP
78
7C
FE
00
F8
F8
38
38
38
38
38
FE
FE
ENDCHAR
STARTCHAR 00EF
ENCODING 239
SWIDTH 660 0
DWIDTH 11 0
BBX 7 13 2 0
BITMAP
38
78
78
00
F8
F8
38
38
38
38
38
FE
FE
ENDCHAR
STARTCHAR 00F1
ENCODING 241
SWIDTH 660 0
DWIDTH 11 0
BBX 9 12 1 0
BITMAP
3F00
7F00
0000
FE00
FF00
E380
E380
E380
E380
E380
E380
E380
ENDCHAR
STARTCHAR 00F2
ENCODING 242
SWIDTH 660 0
DWIDTH 11 0
BBX 10 13 0 0
BITMAP
3C00
1C00
0E00
0000
1F00
7F80
71C0
E1C0
E1C0
E1C0
71C0
7F80
3F00
ENDCHAR
STARTCHAR 00F3
ENCODING 243
SWIDTH 660 0
DWIDTH 11 0
BBX 10 13 0 0
BITMAP
0780
0700
0E00
0000
1F00
7F80
71C0
E1C0
E1C0
E1C0
71C0
7F80
3F00
ENDCHAR
STARTCHAR 00F4
ENCODING 244
SWIDTH 660 0
DWIDTH 11 0
BBX 10 13 0 0
BITMAP
1F00
1F00
3B80
0000
1F00
7F80
71C0
E1C0
E1C0
E1C0
71C0
7F80
3F00
ENDCHAR
STARTCHAR 00F5
ENCODING 245
SWIDTH 660 0
DWIDTH 11 0
BBX 10 12 0 0
BITMAP
3F80
3F80
0000
1F00
7F80
71C0
E1C0
E1C0
E1C0
71C0
7F80
3F00
ENDCHAR
STARTCHAR 00F6
ENCODING 246
SWIDTH 660 0
DWIDTH 11 0
BBX 10 13 0 0
BITMAP
3F00
3F00
3F00
0000
1F00
7F80
71C0
E1C0
E1C0
E1C0
71C0
7F80
3F00
ENDCHAR
STARTCHAR 00F8
ENCODING 248
SWIDTH 660 0
DWIDTH 11 0
BBX 10 11 0 -1
BITMAP
0380
1F00
7F80
77C0
EFC0
EFC0
EDC0
7DC0
7F80
3F00
3000
ENDCHAR
STARTCHAR 00F9
ENCODING 249
SWIDTH 660 0
DWIDTH 11 0
BBX 9 12 1 0
BITMAP
7800
3C00
1C00
C380
E380
E380
E380
E380
E380
E780
FF80
7F80
ENDCHAR
STARTCHAR 00FA
ENCODING 250
SWIDTH 660 0
DWIDTH 11 0
BBX 9 12 1 0
BITMAP
0E00
1E00
1C00
C380
E380
E380
E380
E380
E380
E780
FF80
7F80
ENDCHAR
STARTCHAR 00FB
ENCODING 251
SWIDTH 660 0
DWIDTH 11 0
BBX 9 12 1 0
BITMAP
3C00
7E00
7700
0000
E380
E380
E380
E380
E380
E780
FF80
7F80
ENDCHAR
STARTCHAR 00FC
ENCODING 252
SWIDTH 660 0
DWIDTH 11 0
BBX 9 12 1 0
BITMAP
7E00
7E00
7E00
0000
E380
E380
E380
E380
E380
E780
FF80
7F80
ENDCHAR
STARTCHAR 00FD
ENCODING 253
SWIDTH 660 0
DWIDTH 11 0
BBX 10 16 0 -3
BITMAP
3C00
1C00
0E00
0000
E1C0
F1C0
7B80
3B80
3F00
1F00
0E00
1E00
1C00
3800
7800
7000
ENDCHAR
STARTCHAR 00FF
ENCODING 255
SWIDTH 660 0
DWIDTH 11 0
BBX 10 16 0 -3
BITMAP
3B80
3B80
3B80
0000
E1C0
F1C0
7B80
3B80
3F00
1F00
0E00
1E00
1C00
3800
7800
7000
ENDCHAR
STARTCHAR 0141
ENCODING 321
SWIDTH 660 0
DWIDTH 11 0
BBX 9 12 1 0
BITMAP
3800
3800
3800
3800
3E00
FE00
F800
B800
3800
3800
3F80
3F80
ENDCHAR
STARTCHAR 0142
ENCODING 322
SWIDTH 660 0
DWIDTH 11 0
BBX 8 12 1 0
BITMAP
7C
7C
1C
1C
1F
7F
FC
1C
1C
1C
7F
7F
ENDCHAR
STARTCHAR 0160
ENCODING 352
SWIDTH 660 0
DWIDTH 11 0
BBX 9 16 1 0
BITMAP
7700
3F00
1E00
0000
3E00
7F00
FF80
E380
E000
7C00
3F00
0F80
C380
E380
FF00
7E00
ENDCHAR
STARTCHAR 0161
ENCODING 353
SWIDTH 660 0
DWIDTH 11 0
BBX 9 12 1 0
BITMAP
7700
3E00
3C00
3E00
FF00
E700
F800
7F00
0F00
E380
FF00
7F00
ENDCHAR
STARTCHAR 0178
ENCODING 376
SWIDTH 660 0
DWIDTH 11 0
BBX 10 15 0 0
BITMAP
3B80
3B80
3B80
E1C0
73C0
7B80
3F80
1F00
1E00
0E00
0E00
0E00
0E00
0E00
0E00
ENDCHAR
STARTCHAR 017D
ENCODING 381
SWIDTH 660 0
DWIDTH 11 0
BBX 9 16 1 0
BITMAP
F700
7E00
3C00
0000
FF00
FF00
0E00
0E00
1C00
1C00
3800
3800
7000
F000
FF80
FF80
ENDCHAR
STARTCHAR 017E
ENCODING 382
SWIDTH 660 0
DWIDTH 11 0
BBX 8 13 1 0
BITMAP
77
7E
3C
00
FF
FF
0F
1E
3C
78
F0
FF
FF
ENDCHAR
STARTCHAR 02C6
ENCODING 710
SWIDTH 660 0
DWIDTH 11 0
BBX 7 3 2 12
BITMAP
3C
7C
EE
ENDCHAR
STARTCHAR 2018
ENCODING 8216
SWIDTH 660 0
DWIDTH 11 0
BBX 3 6 4 6
BITMAP
E0
E0
E0
E0
E0
E0
ENDCHAR
STARTCHAR 2019
ENCODING 8217
SWIDTH 660 0
DWIDTH 11 0
BBX 3 6 4 6
BITMAP
E0
E0
E0
E0
E0
E0
ENDCHAR
STARTCHAR 201C
ENCODING 8220
SWIDTH 660 0
DWIDTH 11 0
BBX 7 6 2 6
BITMAP
EE
EE
EE
EC
EC
EC
ENDCHAR
STARTCHAR 201D
ENCODING 8221
SWIDTH 660 0
DWIDTH 11 0
BBX 7 6 2 6
BITMAP
EE
EE
EE
EC
EC
EC
ENDCHAR
STARTCHAR 201E
ENCODING 8222
SWIDTH 660 0
DWIDTH 11 0
BBX 7 6 2 6
BITMAP
EE
EE
EE
EC
EC
EC
ENDCHAR
STARTCHAR 20AC
ENCODING 8364
SWIDTH 660 0
DWIDTH 11 0
BBX 11 12 0 0
BITMAP
0FC0
1FE0
1CE0
3800
FF80
3800
FF00
FF00
3800
3C60
1FE0
0FC0
ENDCHAR
ENDFONT
